<?xml version="1.0" encoding="utf-8"?>
<!-- Generator: Adobe Illustrator 24.1.2, SVG Export Plug-In . SVG Version: 6.00 Build 0)  -->
<svg version="1.1" id="Слой_1" xmlns="http://www.w3.org/2000/svg" xmlns:xlink="http://www.w3.org/1999/xlink" x="0px" y="0px"
	 viewBox="0 0 50 50" style="enable-background:new 0 0 50 50;" xml:space="preserve">
<g>
	<rect x="5.5" y="5.5" width="9" height="9"/>
	<path d="M14,6v8H6V6H14 M15,5H5v10h10V5L15,5z"/>
</g>
<g>
	<rect x="5.5" y="20.5" width="9" height="9"/>
	<path d="M14,21v8H6v-8H14 M15,20H5v10h10V20L15,20z"/>
</g>
<g>
	<rect x="5.5" y="35.5" width="9" height="9"/>
	<path d="M14,36v8H6v-8H14 M15,35H5v10h10V35L15,35z"/>
</g>
<g>
	<rect x="20.5" y="5.5" width="9" height="9"/>
	<path d="M29,6v8h-8V6H29 M30,5H20v10h10V5L30,5z"/>
</g>
<g>
	<rect x="20.5" y="20.5" width="9" height="9"/>
	<path d="M29,21v8h-8v-8H29 M30,20H20v10h10V20L30,20z"/>
</g>
<g>
	<rect x="20.5" y="35.5" width="9" height="9"/>
	<path d="M29,36v8h-8v-8H29 M30,35H20v10h10V35L30,35z"/>
</g>
<g>
	<rect x="35.5" y="5.5" width="9" height="9"/>
	<path d="M44,6v8h-8V6H44 M45,5H35v10h10V5L45,5z"/>
</g>
<g>
	<rect x="35.5" y="20.5" width="9" height="9"/>
	<path d="M44,21v8h-8v-8H44 M45,20H35v10h10V20L45,20z"/>
</g>
<g>
	<rect x="35.5" y="35.5" width="9" height="9"/>
	<path d="M44,36v8h-8v-8H44 M45,35H35v10h10V35L45,35z"/>
</g>
</svg>
